<?xml version="1.0" encoding="UTF-8"?>
<svg width="794px" height="794px" viewBox="0 0 794 794" version="1.1" xmlns="http://www.w3.org/2000/svg" xmlns:xlink="http://www.w3.org/1999/xlink">
    <!-- Generator: Sketch 53.2 (72643) - https://sketchapp.com -->
    <title>Untitled 2</title>
    <desc>Created with Sketch.</desc>
    <g id="Page-1" stroke="none" stroke-width="1" fill="none" fill-rule="evenodd">
        <path d="M397,793 C178.295239,793 1,615.704761 1,397 C1,178.295239 178.295239,1 397,1 C615.704761,1 793,178.295239 793,397 C793,615.704761 615.704761,793 397,793 Z M345,203 C345,217.142928 349.730644,228.678527 359.192073,237.607143 C368.653503,246.535759 381.280409,251 397.073171,251 C412.865933,251 425.635114,246.535759 435.381098,237.607143 C445.127081,228.678527 450,217.142928 450,203 C450,188.857072 445.127081,177.321473 435.381098,168.392857 C425.635114,159.464241 412.865933,155 397.073171,155 C381.280409,155 368.653503,159.464241 359.192073,168.392857 C349.730644,177.321473 345,188.857072 345,203 Z M446,311 L348,311 L348,640 L446,640 L446,311 Z" id="Combined-Shape" stroke="#979797" fill="#000000"></path>
    </g>
</svg>