<?xml version="1.0" encoding="UTF-8"?>
<svg width="159px" height="202px" viewBox="0 0 159 202" version="1.1" xmlns="http://www.w3.org/2000/svg" xmlns:xlink="http://www.w3.org/1999/xlink">
    <!-- Generator: Sketch 53.2 (72643) - https://sketchapp.com -->
    <title>Untitled</title>
    <desc>Created with Sketch.</desc>
    <g id="Page-1" stroke="none" stroke-width="1" fill="none" fill-rule="evenodd">
        <path d="M103.392353,54.1594704 L112.277406,21 C117.734477,22.1258766 122.828899,23.7905467 127.560713,25.994018 C137.236424,30.4997223 144.803583,36.8827077 150.262417,45.1431657 C155.721252,53.4036237 158.450628,63.1369544 158.450628,74.3434498 L118.592673,74.3434498 C118.24608,67.7581896 115.96438,62.5304957 111.747503,58.6602112 C109.529678,56.6246738 106.744637,55.1244297 103.392353,54.1594704 Z M93.914961,89.5295773 C96.0314513,90.3458865 98.2497785,91.175889 100.569946,92.0195862 L105.422219,94.0991316 C122.058665,99.9912065 135.055694,107.096249 144.413696,115.414473 C153.771697,123.732696 158.450628,134.996788 158.450628,149.207086 C158.450628,161.106767 155.663487,170.926744 150.089122,178.667313 C144.514757,186.407882 136.803186,192.155458 126.954179,195.910211 C117.105171,199.664965 105.768874,201.542313 92.9449458,201.542313 C84.1068334,201.542313 75.5143531,200.387022 67.167247,198.076404 C66.4383331,197.874629 65.7159175,197.663053 65,197.441676 L73.9654415,163.982198 C78.6638131,166.840468 84.9902776,168.269586 92.9449458,168.269586 C101.263169,168.269586 107.617272,166.320032 112.007446,162.420865 C116.397619,158.521697 118.592673,154.232678 118.592673,149.553677 C118.592673,144.181491 116.065473,139.415914 111.010997,135.256802 C106.207653,131.304336 97.5048853,127.273675 84.9024541,123.164711 L93.914961,89.5295773 Z" id="Combined-Shape" fill="#515151AA" fill-rule="nonzero"></path>
        <path d="M82.3694492,35.4355169 C79.0710873,34.3042602 75.1733262,33.7386364 70.6761364,33.7386364 C62.5312093,33.7386364 56.3359587,35.2549564 52.0901989,38.287642 C47.844439,41.3203277 45.7215909,45.3494067 45.7215909,50.375 C45.7215909,55.9204823 48.7686722,60.1950607 54.8629261,63.1988636 C59.7573139,65.6112633 65.7600623,68.1726651 72.8712927,70.8831193 L63.8751303,104.457255 C62.8202347,104.106545 61.736858,103.755263 60.625,103.403409 L57.1590909,102.363636 C46.6457808,99.2443026 37.5478604,95.662899 29.8650568,91.6193182 C22.1822533,87.5757374 16.2613844,82.2902788 12.1022727,75.7627841 C7.94316102,69.2352893 5.86363636,60.6572501 5.86363636,50.0284091 C5.86363636,39.8616916 8.70854163,31.0381529 14.3984375,23.5575284 C20.0883334,16.0769039 27.8865508,10.3004465 37.7933239,6.22798295 C47.7000969,2.15551941 59.0075122,0.119318182 71.7159091,0.119318182 C78.6968425,0.119318182 85.2201708,0.799103274 91.2859495,2.15868466 L82.3694492,35.4355169 Z M43.9817621,178.700315 C36.0016872,176.38362 28.8122842,172.874409 22.4133523,168.172585 C15.7703266,163.291406 10.4848681,157.081714 6.55681818,149.543324 C2.62876824,142.004934 0.664772727,132.979219 0.664772727,122.465909 L40.5227273,122.465909 C40.8693199,131.130725 43.4687257,137.744769 48.3210227,142.308239 C49.6438924,143.552366 51.1599594,144.626899 52.8692284,145.53184 L43.9817615,178.700318 Z" id="Combined-Shape" fill="#000000" fill-rule="nonzero"></path>
    </g>
</svg>